<svg width="564" height="109" viewBox="0 0 564 109" fill="none" xmlns="http://www.w3.org/2000/svg">
<g filter="url(#filter0_d_23040_8819)">
<circle cx="54.1825" cy="50.8008" r="29.3809" fill="white"/>
</g>
<path d="M80.1229 57.2449C76.5588 71.5451 62.0751 80.2773 47.7487 76.711C33.4485 73.136 24.7303 58.6522 28.2945 44.3521C31.8586 30.0519 46.3335 21.3197 60.625 24.886C74.9601 28.4086 83.6783 42.9361 80.1229 57.2449Z" fill="#ECEFF0"/>
<path d="M54.5182 57.2777C54.4144 57.3129 54.3553 57.2227 54.2847 57.1811C50.8256 55.1396 47.3703 53.0967 43.9188 51.0523C43.8854 51.0355 43.8507 51.0212 43.8151 51.0098V50.9641L43.8763 50.9288C43.9632 50.906 44.0488 50.8783 44.1326 50.8458L52.284 47.137C53.0104 46.806 53.7368 46.4801 54.4632 46.1522H54.5151C54.5151 46.256 54.5151 46.3483 54.5151 46.4469C54.5178 50.0575 54.5189 53.6678 54.5182 57.2777Z" fill="#343535"/>
<path d="M54.5233 46.1547H54.4714C54.4714 46.0509 54.4818 45.9472 54.4818 45.8382C54.4818 41.7828 54.4818 37.727 54.4818 33.6709C54.4699 33.5667 54.4769 33.4612 54.5026 33.3595H54.5244C54.9509 33.9894 55.3224 34.6536 55.7146 35.3042C58.8223 40.459 61.9282 45.613 65.0324 50.7664C65.0625 50.8172 65.0864 50.8701 65.1133 50.9262C65.0254 50.9074 64.9391 50.8821 64.8549 50.8504C64.2852 50.5931 63.7134 50.3316 63.1489 50.069C62.2648 49.6643 61.3803 49.2603 60.4954 48.8569L56.2325 46.9257C55.6648 46.6642 55.0941 46.41 54.5233 46.1547Z" fill="#2F3030"/>
<path d="M54.506 33.3542C54.4803 33.4559 54.4733 33.5613 54.4852 33.6655C54.4852 37.7209 54.4852 41.7767 54.4852 45.8328C54.4852 45.9366 54.479 46.0404 54.4749 46.1493C53.7485 46.4773 53.022 46.8031 52.2956 47.1341L44.1443 50.843C44.0605 50.8755 43.9749 50.9032 43.888 50.926C44.1235 50.4362 44.4297 49.992 44.7088 49.523C47.9431 44.1469 51.1797 38.7718 54.4188 33.3978C54.4402 33.368 54.4634 33.3396 54.4884 33.3127L54.506 33.3542Z" fill="#828384"/>
<path d="M54.5233 46.1547C55.0941 46.41 55.665 46.6643 56.2347 46.9217L60.4977 48.8529C61.3832 49.2555 62.2677 49.6595 63.1512 50.065C63.7198 50.3254 64.2927 50.589 64.8572 50.8464C64.9413 50.878 65.0277 50.9033 65.1156 50.9221C65.2194 51.0518 65.0658 51.057 65.0191 51.085C64.1339 51.6143 63.2446 52.1363 62.3573 52.6613C59.8107 54.1681 57.2648 55.6746 54.7196 57.1806C54.6553 57.218 54.5856 57.2455 54.5182 57.2777C54.5182 53.6684 54.5183 50.0594 54.5183 46.4495C54.5194 46.3509 54.5223 46.2533 54.5233 46.1547Z" fill="#131313"/>
<path d="M54.4817 59.3279L61.1491 55.398C62.4221 54.6467 63.6943 53.8947 64.9659 53.142L65.0811 53.0787C65.0925 53.1825 65.0209 53.2375 64.9773 53.2976C62.0717 57.3939 59.166 61.4888 56.2604 65.5822C55.7104 66.3585 55.1614 67.1388 54.6062 67.9088C54.5772 67.9493 54.5326 68.1392 54.4433 67.9379C54.5139 67.8777 54.4828 67.7967 54.4828 67.7303C54.4834 64.9285 54.4831 62.1276 54.4817 59.3279Z" fill="#2F3030"/>
<path d="M54.4811 59.3284C54.4811 62.1282 54.4811 64.9273 54.4811 67.7257C54.4811 67.7973 54.5123 67.8782 54.4417 67.9332C54.2933 67.844 54.229 67.6842 54.1304 67.5524C50.7612 62.8065 47.3938 58.0599 44.0281 53.3127C43.9856 53.2525 43.9461 53.1882 43.9025 53.1217C43.9897 53.0709 44.0364 53.1404 44.0873 53.1705C47.4945 55.1823 50.901 57.1959 54.3068 59.2111C54.3701 59.2506 54.4241 59.291 54.4811 59.3284Z" fill="#828384"/>
<path d="M54.5068 33.3541L54.4819 33.3157C54.5275 33.2867 54.5213 33.3292 54.5286 33.351L54.5068 33.3541Z" fill="#393939"/>
<g filter="url(#filter1_d_23040_8819)">
<circle cx="282.553" cy="49.7988" r="30.0487" fill="white"/>
</g>
<path d="M282.553 76.8426C297.489 76.8426 309.597 64.7347 309.597 49.7988C309.597 34.8629 297.489 22.755 282.553 22.755C267.617 22.755 255.509 34.8629 255.509 49.7988C255.509 64.7347 267.617 76.8426 282.553 76.8426Z" fill="url(#paint0_linear_23040_8819)"/>
<path d="M290.359 55.6466L298.011 51.2286C298.416 50.9945 298.667 50.5594 298.667 50.0912V41.2563C298.667 40.7892 298.415 40.353 298.011 40.1189L290.359 35.7008C289.954 35.4668 289.452 35.4679 289.047 35.7008L281.395 40.1189C280.99 40.353 280.739 40.7892 280.739 41.2563V57.0457L275.374 60.1431L270.008 57.0457V50.8498L275.374 47.7525L278.913 49.7953V45.639L276.03 43.9749C275.831 43.86 275.604 43.7993 275.373 43.7993C275.142 43.7993 274.915 43.86 274.717 43.9749L267.066 48.3929C266.66 48.627 266.41 49.0621 266.41 49.5303V58.3653C266.41 58.8324 266.662 59.2685 267.066 59.5026L274.717 63.9207C275.121 64.1537 275.625 64.1537 276.03 63.9207L283.681 59.5037C284.086 59.2696 284.337 58.8335 284.337 58.3664V42.5769L284.434 42.5217L289.702 39.4795L295.068 42.5769V48.7728L289.702 51.8702L286.169 49.8295V53.9859L289.047 55.6477C289.452 55.8807 289.954 55.8807 290.359 55.6477V55.6466Z" fill="white"/>
<g filter="url(#filter2_d_23040_8819)">
<circle cx="434.8" cy="49.7988" r="30.0487" fill="white"/>
</g>
<path d="M461.04 56.3258C457.431 70.8047 442.766 79.6461 428.261 76.0352C413.782 72.4155 404.955 57.7507 408.563 43.2718C412.172 28.7929 426.828 19.9515 441.298 23.5624C455.812 27.129 464.639 41.8381 461.04 56.3258Z" fill="#213147"/>
<path d="M418.022 42.1216V58.0218C418.022 58.9964 418.589 59.9711 419.404 60.4552L433.196 68.4053C434.088 68.8894 435.145 68.8894 436.037 68.4053L449.829 60.4552C450.72 59.9711 451.211 58.9964 451.211 58.0218V42.1216C451.211 41.147 450.644 40.1724 449.829 39.6882L436.031 31.7382C435.139 31.254 434.081 31.254 433.19 31.7382L419.398 39.6882C418.506 40.1724 418.022 41.147 418.022 42.1216Z" fill="#213147"/>
<path d="M440.897 44.0709C441.063 43.7461 441.464 43.7461 441.547 44.0709L448.357 62.8122L444.465 65.0864L438.948 49.9125C438.865 49.7532 438.865 49.5876 438.948 49.4283L440.897 44.0709Z" fill="#12AAFF"/>
<path d="M435.706 58.5123L437.655 53.1549C437.814 52.83 438.222 52.83 438.298 53.1549L443.006 65.9718L439.114 68.246L435.706 58.9964C435.623 58.8372 435.623 58.6715 435.706 58.5123Z" fill="#12AAFF"/>
<path d="M434.572 32.3051C434.655 32.3051 434.731 32.3051 434.814 32.3879L449.739 40.9877C449.899 41.0706 449.981 41.2298 449.981 41.4719V58.6715C449.981 58.8308 449.899 59.0792 449.739 59.1557L434.814 67.7555C434.731 67.8383 434.655 67.8383 434.572 67.8383C434.489 67.8383 434.413 67.8383 434.33 67.7555L419.404 59.1557C419.245 59.0729 419.162 58.9136 419.162 58.6715V41.4719C419.162 41.3126 419.245 41.0642 419.404 40.9877L434.33 32.3879C434.406 32.3051 434.489 32.3051 434.572 32.3051ZM434.572 29.7889C434.005 29.7889 433.514 29.9481 433.03 30.1966L418.105 38.7964C417.13 39.3633 416.563 40.338 416.563 41.4719V58.6715C416.563 59.729 417.13 60.7801 418.105 61.347L433.03 69.9469C433.514 70.1889 434.005 70.3546 434.572 70.3546C435.139 70.3546 435.629 70.1953 436.113 69.9469L451.039 61.347C452.014 60.7801 452.581 59.8054 452.581 58.6715V41.4719C452.581 40.4144 452.014 39.3633 451.039 38.7964L436.19 30.1966C435.706 29.9545 435.215 29.7889 434.648 29.7889H434.572Z" fill="#9DCCED"/>
<path d="M424.755 65.08L426.131 61.347L428.89 63.6212L426.297 66.0547L424.755 65.08Z" fill="#213147"/>
<path d="M436.107 40.2552H439.923L439.84 40.1787C440.082 40.1787 440.248 40.4208 440.165 40.6629L430.106 68.246L426.214 65.9718L435.457 40.6629C435.54 40.4144 435.865 40.2552 436.107 40.2552Z" fill="white"/>
<path d="M429.539 40.2552H433.272C433.514 40.2552 433.68 40.4972 433.597 40.7393L424.672 65.1628L420.78 62.8886L428.89 40.6629C428.972 40.4144 429.297 40.2552 429.539 40.2552Z" fill="white"/>
<g filter="url(#filter3_d_23040_8819)">
<circle cx="130.306" cy="49.7988" r="30.0487" fill="white"/>
</g>
<g clip-path="url(#clip0_23040_8819)">
<path d="M157.35 49.7988C157.35 34.8629 145.242 22.755 130.306 22.755C115.371 22.755 103.263 34.8629 103.263 49.7988C103.263 64.7347 115.371 76.8426 130.306 76.8426C145.242 76.8426 157.35 64.7347 157.35 49.7988Z" fill="#FF0420"/>
<path fill-rule="evenodd" clip-rule="evenodd" d="M130.306 73.4621V63.4463C140.608 63.4463 148.963 55.0936 148.963 44.7918C148.963 34.4901 140.608 26.1355 130.306 26.1355V36.1513C120.005 36.1513 111.65 44.504 111.65 54.8058C111.65 65.1075 120.005 73.4621 130.306 73.4621ZM139.536 49.8857V49.7119C135.468 47.6855 132.42 44.6373 130.393 40.5691H130.22C128.193 44.6373 125.145 47.6855 121.077 49.7119V49.8857C125.145 51.9121 128.193 54.9603 130.22 59.0285H130.393C132.42 54.9603 135.468 51.9121 139.536 49.8857Z" fill="white"/>
</g>
<g filter="url(#filter4_d_23040_8819)">
<circle cx="358.676" cy="49.7988" r="30.0487" fill="white"/>
</g>
<g clip-path="url(#clip1_23040_8819)">
<path d="M358.676 76.8426C365.849 76.8426 372.728 73.9934 377.799 68.9217C382.871 63.85 385.72 56.9713 385.72 49.7988C385.72 42.6263 382.871 35.7476 377.799 30.6759C372.728 25.6043 365.849 22.755 358.676 22.755C351.504 22.755 344.625 25.6043 339.554 30.6759C334.482 35.7476 331.633 42.6263 331.633 49.7988C331.633 56.9713 334.482 63.85 339.554 68.9217C344.625 73.9934 351.504 76.8426 358.676 76.8426Z" fill="#0052FF"/>
<path fill-rule="evenodd" clip-rule="evenodd" d="M358.613 68.8453C369.131 68.8453 377.659 60.3169 377.659 49.7988C377.659 39.2807 369.131 30.7522 358.613 30.7522C348.634 30.7522 340.449 38.4288 339.634 48.1955H367.895V51.3673H339.634C340.432 61.1514 348.624 68.8434 358.615 68.8434L358.613 68.8453Z" fill="white"/>
</g>
<g filter="url(#filter5_d_23040_8819)">
<circle cx="206.43" cy="49.7988" r="30.0487" fill="white"/>
</g>
<g clip-path="url(#clip2_23040_8819)">
<mask id="mask0_23040_8819" style="mask-type:luminance" maskUnits="userSpaceOnUse" x="179" y="22" width="55" height="55">
<path d="M179.386 22.755H233.474V76.8426H179.386V22.755Z" fill="white"/>
</mask>
<g mask="url(#mask0_23040_8819)">
<path d="M179.386 22.755H233.474V76.8426H179.386V22.755Z" fill="url(#paint1_radial_23040_8819)"/>
<path d="M228.065 49.3878C216.339 49.3878 206.841 39.8819 206.841 28.1638H206.019V49.3878H184.795V50.2099C196.522 50.2099 206.019 59.7158 206.019 71.4339H206.841V50.2099H228.065V49.3878Z" fill="white"/>
</g>
</g>
<g filter="url(#filter6_d_23040_8819)">
<circle cx="510.923" cy="49.7988" r="30.0487" fill="white"/>
</g>
<g clip-path="url(#clip3_23040_8819)">
<mask id="mask1_23040_8819" style="mask-type:luminance" maskUnits="userSpaceOnUse" x="483" y="22" width="55" height="55">
<path d="M483.879 22.755H537.967V76.8426H483.879V22.755Z" fill="white"/>
</mask>
<g mask="url(#mask1_23040_8819)">
<path d="M483.879 22.755H537.967V76.8426H483.879V22.755Z" fill="black"/>
<path d="M483.879 22.755H537.967V76.8426H483.879V22.755Z" fill="url(#paint2_linear_23040_8819)" fill-opacity="0.1"/>
<path d="M518.624 61.9685H499.273V41.5775H503.7V58.0174H518.624V61.9685ZM518.624 45.5286C519.671 45.5286 520.676 45.1124 521.417 44.3717C522.157 43.631 522.574 42.6264 522.574 41.5788C522.574 40.5313 522.157 39.5266 521.417 38.7859C520.676 38.0452 519.671 37.6291 518.624 37.6291C517.576 37.6291 516.572 38.0452 515.831 38.7859C515.09 39.5266 514.674 40.5313 514.674 41.5788C514.674 42.6264 515.09 43.631 515.831 44.3717C516.572 45.1124 517.576 45.5286 518.624 45.5286Z" fill="white"/>
</g>
</g>
<defs>
<filter id="filter0_d_23040_8819" x="2.86567e-05" y="0.14874" width="108.365" height="108.365" filterUnits="userSpaceOnUse" color-interpolation-filters="sRGB">
<feFlood flood-opacity="0" result="BackgroundImageFix"/>
<feColorMatrix in="SourceAlpha" type="matrix" values="0 0 0 0 0 0 0 0 0 0 0 0 0 0 0 0 0 0 127 0" result="hardAlpha"/>
<feOffset dy="3.52475"/>
<feGaussianBlur stdDeviation="12.3807"/>
<feComposite in2="hardAlpha" operator="out"/>
<feColorMatrix type="matrix" values="0 0 0 0 0 0 0 0 0 0 0 0 0 0 0 0 0 0 0.25 0"/>
<feBlend mode="normal" in2="BackgroundImageFix" result="effect1_dropShadow_23040_8819"/>
<feBlend mode="normal" in="SourceGraphic" in2="effect1_dropShadow_23040_8819" result="shape"/>
</filter>
<filter id="filter1_d_23040_8819" x="229.476" y="-4.10745e-05" width="106.154" height="106.154" filterUnits="userSpaceOnUse" color-interpolation-filters="sRGB">
<feFlood flood-opacity="0" result="BackgroundImageFix"/>
<feColorMatrix in="SourceAlpha" type="matrix" values="0 0 0 0 0 0 0 0 0 0 0 0 0 0 0 0 0 0 127 0" result="hardAlpha"/>
<feOffset dy="3.27273"/>
<feGaussianBlur stdDeviation="11.4955"/>
<feComposite in2="hardAlpha" operator="out"/>
<feColorMatrix type="matrix" values="0 0 0 0 0 0 0 0 0 0 0 0 0 0 0 0 0 0 0.25 0"/>
<feBlend mode="normal" in2="BackgroundImageFix" result="effect1_dropShadow_23040_8819"/>
<feBlend mode="normal" in="SourceGraphic" in2="effect1_dropShadow_23040_8819" result="shape"/>
</filter>
<filter id="filter2_d_23040_8819" x="381.723" y="-4.10745e-05" width="106.154" height="106.154" filterUnits="userSpaceOnUse" color-interpolation-filters="sRGB">
<feFlood flood-opacity="0" result="BackgroundImageFix"/>
<feColorMatrix in="SourceAlpha" type="matrix" values="0 0 0 0 0 0 0 0 0 0 0 0 0 0 0 0 0 0 127 0" result="hardAlpha"/>
<feOffset dy="3.27273"/>
<feGaussianBlur stdDeviation="11.4955"/>
<feComposite in2="hardAlpha" operator="out"/>
<feColorMatrix type="matrix" values="0 0 0 0 0 0 0 0 0 0 0 0 0 0 0 0 0 0 0.25 0"/>
<feBlend mode="normal" in2="BackgroundImageFix" result="effect1_dropShadow_23040_8819"/>
<feBlend mode="normal" in="SourceGraphic" in2="effect1_dropShadow_23040_8819" result="shape"/>
</filter>
<filter id="filter3_d_23040_8819" x="77.2296" y="-4.10745e-05" width="106.154" height="106.154" filterUnits="userSpaceOnUse" color-interpolation-filters="sRGB">
<feFlood flood-opacity="0" result="BackgroundImageFix"/>
<feColorMatrix in="SourceAlpha" type="matrix" values="0 0 0 0 0 0 0 0 0 0 0 0 0 0 0 0 0 0 127 0" result="hardAlpha"/>
<feOffset dy="3.27273"/>
<feGaussianBlur stdDeviation="11.4955"/>
<feComposite in2="hardAlpha" operator="out"/>
<feColorMatrix type="matrix" values="0 0 0 0 0 0 0 0 0 0 0 0 0 0 0 0 0 0 0.25 0"/>
<feBlend mode="normal" in2="BackgroundImageFix" result="effect1_dropShadow_23040_8819"/>
<feBlend mode="normal" in="SourceGraphic" in2="effect1_dropShadow_23040_8819" result="shape"/>
</filter>
<filter id="filter4_d_23040_8819" x="305.6" y="-4.10745e-05" width="106.154" height="106.154" filterUnits="userSpaceOnUse" color-interpolation-filters="sRGB">
<feFlood flood-opacity="0" result="BackgroundImageFix"/>
<feColorMatrix in="SourceAlpha" type="matrix" values="0 0 0 0 0 0 0 0 0 0 0 0 0 0 0 0 0 0 127 0" result="hardAlpha"/>
<feOffset dy="3.27273"/>
<feGaussianBlur stdDeviation="11.4955"/>
<feComposite in2="hardAlpha" operator="out"/>
<feColorMatrix type="matrix" values="0 0 0 0 0 0 0 0 0 0 0 0 0 0 0 0 0 0 0.25 0"/>
<feBlend mode="normal" in2="BackgroundImageFix" result="effect1_dropShadow_23040_8819"/>
<feBlend mode="normal" in="SourceGraphic" in2="effect1_dropShadow_23040_8819" result="shape"/>
</filter>
<filter id="filter5_d_23040_8819" x="153.353" y="-4.10745e-05" width="106.154" height="106.154" filterUnits="userSpaceOnUse" color-interpolation-filters="sRGB">
<feFlood flood-opacity="0" result="BackgroundImageFix"/>
<feColorMatrix in="SourceAlpha" type="matrix" values="0 0 0 0 0 0 0 0 0 0 0 0 0 0 0 0 0 0 127 0" result="hardAlpha"/>
<feOffset dy="3.27273"/>
<feGaussianBlur stdDeviation="11.4955"/>
<feComposite in2="hardAlpha" operator="out"/>
<feColorMatrix type="matrix" values="0 0 0 0 0 0 0 0 0 0 0 0 0 0 0 0 0 0 0.25 0"/>
<feBlend mode="normal" in2="BackgroundImageFix" result="effect1_dropShadow_23040_8819"/>
<feBlend mode="normal" in="SourceGraphic" in2="effect1_dropShadow_23040_8819" result="shape"/>
</filter>
<filter id="filter6_d_23040_8819" x="457.846" y="-4.10745e-05" width="106.154" height="106.154" filterUnits="userSpaceOnUse" color-interpolation-filters="sRGB">
<feFlood flood-opacity="0" result="BackgroundImageFix"/>
<feColorMatrix in="SourceAlpha" type="matrix" values="0 0 0 0 0 0 0 0 0 0 0 0 0 0 0 0 0 0 127 0" result="hardAlpha"/>
<feOffset dy="3.27273"/>
<feGaussianBlur stdDeviation="11.4955"/>
<feComposite in2="hardAlpha" operator="out"/>
<feColorMatrix type="matrix" values="0 0 0 0 0 0 0 0 0 0 0 0 0 0 0 0 0 0 0.25 0"/>
<feBlend mode="normal" in2="BackgroundImageFix" result="effect1_dropShadow_23040_8819"/>
<feBlend mode="normal" in="SourceGraphic" in2="effect1_dropShadow_23040_8819" result="shape"/>
</filter>
<linearGradient id="paint0_linear_23040_8819" x1="245.625" y1="27.2004" x2="301.462" y2="61.3697" gradientUnits="userSpaceOnUse">
<stop stop-color="#A229C5"/>
<stop offset="1" stop-color="#7B3FE4"/>
</linearGradient>
<radialGradient id="paint1_radial_23040_8819" cx="0" cy="0" r="1" gradientUnits="userSpaceOnUse" gradientTransform="translate(206.43 49.7988) rotate(90) scale(27.0438)">
<stop stop-color="#FC74FE"/>
<stop offset="1" stop-color="#F50DB4"/>
</radialGradient>
<linearGradient id="paint2_linear_23040_8819" x1="483.879" y1="22.755" x2="510.923" y2="76.8426" gradientUnits="userSpaceOnUse">
<stop stop-color="white"/>
<stop offset="1" stop-color="white" stop-opacity="0"/>
</linearGradient>
<clipPath id="clip0_23040_8819">
<rect width="54" height="54" fill="white" transform="translate(103.263 22.755) scale(1.00162)"/>
</clipPath>
<clipPath id="clip1_23040_8819">
<rect width="54" height="54" fill="white" transform="translate(331.633 22.755) scale(1.00162)"/>
</clipPath>
<clipPath id="clip2_23040_8819">
<rect x="179.386" y="22.755" width="54.0876" height="54.0876" rx="27" fill="white"/>
</clipPath>
<clipPath id="clip3_23040_8819">
<rect x="483.879" y="22.755" width="54.0876" height="54.0876" rx="27" fill="white"/>
</clipPath>
</defs>
</svg>
